<svg xmlns="http://www.w3.org/2000/svg" width="133.628" height="125.689" viewBox="0 0 133.628 125.689">
  <g id="Group_1" data-name="Group 1" transform="translate(-236.309 -200.384)">
    <path id="Path_1" data-name="Path 1" d="M474,261.87a9.628,9.628,0,0,1-2.685-8.311l-.373-.373-.651-.654a10.837,10.837,0,0,0,2.861,10.189l7.631,7.654v-1.7Zm22.561,18.04a9.632,9.632,0,0,0,2.686-8.312l.373-.373.651-.654a10.941,10.941,0,0,1,.3,2.536,10.8,10.8,0,0,1-3.16,7.653l-7.633,7.653-7.631-7.653a10.8,10.8,0,0,1-3.161-7.653,10.937,10.937,0,0,1,.3-2.536l.652.654.372.373a9.637,9.637,0,0,0,2.686,8.312l6.784,6.8Zm-12.668-10.952a7.226,7.226,0,0,0,.8,9.251l5.087,5.1,5.088-5.1a7.228,7.228,0,0,0,.8-9.251l2.261,2.267.04.041a8.43,8.43,0,0,1-2.251,7.793l-5.936,5.952-5.935-5.952a8.433,8.433,0,0,1-2.251-7.793l.04-.041Zm14.878-1.985-5.934-5.952a8.373,8.373,0,0,1-2.459-5.953,8.556,8.556,0,0,1,.2-1.835l.048-.046,2.261-2.268a7.231,7.231,0,0,0,.8,9.252l5.087,5.1,5.088-5.1a7.231,7.231,0,0,0,.8-9.252l2.26,2.268.041.039a8.437,8.437,0,0,1-2.25,7.794l-5.935,5.953h0Zm6.784-5.1a9.629,9.629,0,0,0,2.686-8.311l.372-.373.651-.654a10.835,10.835,0,0,1-2.862,10.189l-7.63,7.654v-1.7Zm-17.988,0-6.783,6.8v1.7l7.631-7.654a10.9,10.9,0,0,0,1.362-1.669,10.936,10.936,0,0,0,1.362,1.669l7.632,7.654v-1.7l-6.783-6.8a9.567,9.567,0,0,1-2.211-3.447A9.569,9.569,0,0,1,487.566,261.87ZM474.9,250.918l-2.261,2.268-.04.039a8.436,8.436,0,0,0,2.25,7.794l5.935,5.953h0l5.935-5.952a8.376,8.376,0,0,0,2.459-5.953,8.561,8.561,0,0,0-.2-1.835l-.047-.046-2.261-2.268a7.231,7.231,0,0,1-.8,9.252l-5.086,5.1-5.088-5.1A7.232,7.232,0,0,1,474.9,250.918Zm27.779-18.991a7.221,7.221,0,0,0-1.352,1.883,11.8,11.8,0,0,0-.518-1.493,8.544,8.544,0,0,1,1.022-1.24,8.385,8.385,0,0,1,11.871,0,8.446,8.446,0,0,1,0,11.906l-5.934,5.952-5.936-5.952a8.629,8.629,0,0,1-1.022-1.242,11.835,11.835,0,0,0,.518-1.492,7.221,7.221,0,0,0,1.352,1.882l5.088,5.1,5.087-5.1a7.2,7.2,0,1,0-10.175-10.2ZM466.7,242.13a7.2,7.2,0,1,1,11.528-8.32,11.766,11.766,0,0,1,.517-1.493,8.464,8.464,0,0,0-1.022-1.24,8.384,8.384,0,0,0-11.87,0,8.445,8.445,0,0,0,0,11.906l5.935,5.952,5.936-5.952a8.548,8.548,0,0,0,1.022-1.242,11.8,11.8,0,0,1-.517-1.492,7.2,7.2,0,0,1-1.353,1.882l-5.087,5.1ZM489.776,226.2a10.831,10.831,0,0,1,7.633,18.477l-7.633,7.653-7.631-7.653a10.824,10.824,0,0,1,7.631-18.477Zm6.784,17.627a9.593,9.593,0,1,0-13.567,0l6.784,6.8Zm-6.784,5.1-5.935-5.953a8.447,8.447,0,0,1,0-11.906,8.379,8.379,0,0,1,11.871,0,8.447,8.447,0,0,1,0,11.906Zm-5.087-17.007a7.227,7.227,0,0,0,0,10.2l5.087,5.1,5.088-5.1a7.2,7.2,0,1,0-10.175-10.2Zm29.8-6.765c-.078.2-.164.4-.258.6l-.029.057a7.221,7.221,0,0,1-.454.784,11.593,11.593,0,0,0-1.08-.553,5.907,5.907,0,0,0,.328-.522l.055-.1.052-.1.025-.051c.042-.085.082-.169.12-.255l.023-.053c.037-.087.073-.175.106-.263q.06-.159.111-.323l.064-.22.014-.056a5.972,5.972,0,0,0,.177-1.093c.01-.138.015-.278.015-.417v-6.014h-6.184l-.14.006-.047,0-.092.007-.047,0-.138.013-.046.006-.092.01-.045.007-.046.007-.045.007-.045.006-.09.018-.046.007-.089.017-.09.019-.175.042-.045.011-.043.012-.13.036-.044.013-.043.013-.129.041-.043.014-.083.03-.042.015-.042.016-.083.032-.042.017-.042.017-.041.016-.042.018-.081.036-.04.017-.041.019-.04.018-.08.039-.04.019-.078.04-.04.022,0-.02,0-.018-.009-.038,0-.019,0-.018,0-.019-.013-.057-.01-.037-.042-.169,0-.018-.09-.335c-.041-.148-.087-.294-.132-.441a7.145,7.145,0,0,1,1.492-.525c.147-.034.3-.064.445-.088l.05-.007.05-.008.2-.027.051-.007.051,0,.153-.015.051,0,.052,0,.051,0,.1-.005.1,0h.051l.052,0h7.352v7.285l0,.138,0,.137,0,.069,0,.069,0,.067-.006.068-.006.069-.006.068-.008.068-.008.067-.009.066-.019.135-.011.067-.011.066-.012.066-.012.066-.014.065-.014.066-.013.064-.015.066-.03.129-.051.193-.019.063-.037.128-.04.126-.042.125-.022.062Zm-1.931-7.375h0V222.6a4.8,4.8,0,0,1-.54,2.213l-.047.088-.024.043-.049.086-.026.044-.105.167-.113.163c-.048.066-.1.132-.148.2h0q-.2-.065-.4-.125l-.04-.011-.122-.034-.042-.011-.041-.011-.021-.005-.041-.011-.062-.015-.02,0-.062-.016-.02-.006-.021,0-.082-.019-.062-.015-.021,0-.021-.005-.1-.023-.021,0-.02,0-.083-.017a3.625,3.625,0,0,0,.919-1.351c.029-.071.054-.145.078-.22l.026-.09.013-.044.011-.046.012-.046.011-.047.02-.091.01-.047.016-.093.008-.048.007-.047.005-.047.006-.047,0-.049,0-.047,0-.049,0-.048,0-.049v-3.754h-3.685l-.043,0-.087,0-.086.006-.043,0-.085.008c-.084.01-.168.024-.251.04l-.164.036c-.094.022-.189.049-.28.08-.065.021-.13.045-.195.071q-.134.051-.263.115a3.613,3.613,0,0,0-.838.574h0c-.026-.47-.071-.936-.138-1.4a4.772,4.772,0,0,1,1.7-.668l.126-.021.084-.012.128-.016.043,0,.044,0,.085-.008.087,0,.088,0h4.972ZM465.8,226.6a11.646,11.646,0,0,1,1.08-.553,5.8,5.8,0,0,1-.328-.522l-.055-.1-.052-.1-.025-.051c-.042-.085-.081-.169-.12-.255l-.023-.053c-.037-.087-.072-.175-.106-.263-.04-.106-.077-.214-.111-.323l-.065-.22-.014-.056a5.913,5.913,0,0,1-.177-1.093c-.01-.138-.015-.278-.015-.417v-6.014h6.184l.141.006.045,0,.093.007.047,0,.138.013.045.006.092.01.045.007.045.007.046.007.045.006.09.018.045.007.089.017.089.019.177.042.044.011.044.012.129.036.043.013.042.013.129.041.042.014.084.03.042.015.043.016.082.032.042.017.042.017.041.016.042.018.081.036.041.017.04.019.04.018.08.039.039.019.079.04.039.022,0-.02.005-.018.009-.038,0-.019,0-.018,0-.019.012-.057.01-.037.043-.169,0-.018.089-.335c.041-.148.086-.294.132-.441a7.146,7.146,0,0,0-1.492-.525c-.146-.034-.294-.064-.445-.088l-.05-.007-.051-.008-.2-.027-.052-.007-.051,0-.153-.015-.052,0-.051,0-.052,0-.1-.005-.1,0H472l-.052,0h-7.352v7.285l0,.138,0,.137,0,.069,0,.069,0,.067.005.068.006.069.007.068.008.068.007.067.009.066.018.135.011.067.01.066.013.066.012.066.013.065.013.066.014.064.016.066.029.129.052.193.018.063.037.128.039.126.043.125.022.062.046.123c.078.2.164.4.258.6l.029.057A7.319,7.319,0,0,0,465.8,226.6Zm2.24-1q.2-.065.4-.125l.04-.011.123-.034.041-.011.041-.011.02-.005.042-.011.062-.015.02,0,.061-.016.021-.006.021,0,.082-.019.062-.015.02,0,.022-.005.1-.023.021,0,.02,0,.084-.017a3.618,3.618,0,0,1-.919-1.351c-.028-.071-.054-.145-.077-.22l-.027-.09-.013-.044-.011-.046-.012-.046-.01-.047-.021-.091-.01-.047-.015-.093-.008-.048-.006-.047-.006-.047-.006-.047,0-.049,0-.047,0-.049,0-.048,0-.049v-3.754h3.685l.044,0,.086,0,.086.006.044,0,.085.008c.085.01.168.024.251.04l.164.036c.095.022.189.049.281.08.065.021.13.045.194.071.09.034.177.073.262.115a3.629,3.629,0,0,1,.838.574h0q.039-.7.138-1.4a4.771,4.771,0,0,0-1.7-.668l-.126-.021-.084-.012-.128-.016-.044,0-.043,0-.086-.008-.086,0-.087,0h-4.974V222.6a4.788,4.788,0,0,0,.54,2.213l.047.088.024.043.049.086.027.044.1.167.113.163c.048.066.1.132.148.2Zm14.1-12.458a10.844,10.844,0,0,0-.363,14.924c-.164.149-.327.3-.485.461-.126.126-.247.254-.366.386a12.065,12.065,0,0,1,.366-16.622l8.478-8.5h0l8.478,8.5a12.064,12.064,0,0,1,.366,16.622c-.118-.131-.24-.26-.366-.386-.157-.159-.32-.312-.485-.461a10.845,10.845,0,0,0-.363-14.924l-7.631-7.654Zm17.806-2.552a14.462,14.462,0,0,1,3.295,15.294,12,12,0,0,0-1.68.845,13.282,13.282,0,0,0-2.46-15.289l-9.329-9.355-9.328,9.355a13.282,13.282,0,0,0-2.462,15.289,11.988,11.988,0,0,0-1.68-.845,14.464,14.464,0,0,1,3.294-15.294l10.175-10.2Zm-21.379,33.244-6.784,6.8-6.785-6.8a9.653,9.653,0,0,1,0-13.606,9.588,9.588,0,0,1,13.568,0,9.781,9.781,0,0,1,.772.877,12.016,12.016,0,0,1,.679-1.066c-.19-.226-.39-.447-.6-.662a10.809,10.809,0,0,0-15.264,15.308l7.632,7.653,7.631-7.653c.213-.212.412-.435.6-.659a12.191,12.191,0,0,1-.679-1.068A9.636,9.636,0,0,1,478.572,243.832Zm22.408,0,6.784,6.8,6.784-6.8a9.654,9.654,0,0,0,0-13.606,9.587,9.587,0,0,0-13.568,0,9.85,9.85,0,0,0-.772.877,11.766,11.766,0,0,0-.679-1.066c.191-.226.39-.447.6-.662A10.809,10.809,0,0,1,515.4,244.682l-7.631,7.653-7.633-7.653c-.212-.212-.412-.435-.6-.659a11.934,11.934,0,0,0,.679-1.068A9.7,9.7,0,0,0,500.98,243.832Z" transform="translate(-186.652 0)" fill="#cb9a51"/>
    <path id="Path_2" data-name="Path 2" d="M221.962,566.082h.507c6.506,11.258,7.253,12.6,8.053,14.254h.053c.774-1.6,1.547-2.942,8.213-14.254h.506l1.573,11.794c1.014,7.781,1.2,8.931,1.494,9.065v.161h-4.693v-.161c.32-.133.16-1.443-.4-6.07-.213-1.98-.4-3.557-.481-5.161h-.027c-.8,1.818-1.466,3.022-2.346,4.653-.747,1.39-2.027,3.582-3.734,6.391h-.533c-1.76-2.861-3.039-5.081-3.813-6.5-.827-1.578-1.547-2.968-2.24-4.573h-.028c-.106,1.631-.266,3.235-.479,5.214-.534,4.6-.694,5.885-.347,6.044v.161h-4.507v-.161c.32-.159.508-1.284,1.575-9.065Z" transform="translate(18.731 -261.375)" fill="#cb9a51"/>
    <path id="Path_3" data-name="Path 3" d="M361.625,570.272h-3.813A2.579,2.579,0,0,0,356,570.7h-.212v-3.771h15.652V570.7h-.186a2.708,2.708,0,0,0-1.813-.428H365.6v8.291c0,7.808,0,9.038.4,9.065v.16h-4.747v-.16c.374-.213.374-1.284.374-9.065Z" transform="translate(-92.476 -262.062)" fill="#cb9a51"/>
    <path id="Path_4" data-name="Path 4" d="M456.277,575.62c0-7.247,0-8.37-.319-8.531v-.16h10.906c0,1.2-.026,2.14-.026,3.718h-.16c-.188-.294-1.387-.375-3.013-.375h-3.413v5.269h3.386c1.653,0,2.159-.027,2.346-.214h.133v3.77h-.133c-.187-.214-.719-.241-2.293-.241h-3.439v5.536h4.639c1.12,0,1.841-.054,2.054-.321h.16c-.027,1.6-.027,2.487-.027,3.716H455.932v-.16c.345-.16.345-1.284.345-9.065Z" transform="translate(-173.739 -262.062)" fill="#cb9a51"/>
    <path id="Path_5" data-name="Path 5" d="M541.487,588.135h-.533L535.3,575.62c-3.306-7.274-3.813-8.37-4.133-8.531v-.16h5.146v.16c-.372.134.107,1.257,2.453,6.659,1.254,2.888,1.84,4.359,2.56,6.418h.053c.746-2.058,1.28-3.476,2.506-6.391,2.294-5.375,2.8-6.525,2.481-6.686v-.16h4.826v.16c-.32.161-.8,1.257-4.08,8.531Z" transform="translate(-234.788 -262.062)" fill="#cb9a51"/>
    <path id="Path_6" data-name="Path 6" d="M658.5,578.564c0,7.781,0,8.744.373,9.065v.161h-4.746V587.6c.373-.3.373-1.258.373-9.013v-2.968c0-7.247,0-8.236-.346-8.5v-.187h4.692v.187c-.346.267-.346,1.23-.346,8.5Z" transform="translate(-334.562 -262.064)" fill="#cb9a51"/>
    <path id="Path_7" data-name="Path 7" d="M713.6,587.139h-.506c-4.667-4.6-7.466-7.38-9.279-9.2-1.281-1.284-2.215-2.219-3.734-3.931h-.054c.054,1.07.054,1.9.054,4.065,0,7.353,0,8.477.347,8.637v.16h-4.373v-.16c.346-.16.346-1.284.346-9.065V565.8h.534c4.8,4.787,7.626,7.621,9.44,9.466,1.173,1.2,2.24,2.273,3.52,3.744h.08c-.027-1.258-.027-2.139-.027-4.626,0-6.927,0-8.05-.373-8.21v-.16h4.346v.16c-.32.161-.32,1.284-.32,8.531Z" transform="translate(-368.582 -261.147)" fill="#cb9a51"/>
    <path id="Path_8" data-name="Path 8" d="M827.749,576.106a10.866,10.866,0,0,1-21.731.186c0-6.15,4.772-10.777,11.092-10.777a10.316,10.316,0,0,1,10.639,10.563Zm-4.159.08a6.747,6.747,0,0,0-6.64-7.06c-3.946,0-6.773,3.075-6.773,7.114a6.78,6.78,0,0,0,6.773,7.086c3.946,0,6.64-3.129,6.64-7.113Z" transform="translate(-457.811 -260.916)" fill="#cb9a51"/>
    <path id="Path_9" data-name="Path 9" d="M233.943,566.3l.575,11.6c.87,6.68,1.127,8.442,1.378,8.98h-4.05c.174-.505.006-1.891-.487-5.97l-.009-.066-.084-.778c-.175-1.6-.326-2.988-.394-4.371l-.011-.206h-.374l-.057.13c-.732,1.664-1.349,2.806-2.131,4.251l-.208.386a14,14,0,0,0-.775,1.919,22.442,22.442,0,0,1-1.956,4.358h-1.224c-2.011-3.274-3.207-5.4-3.742-6.382-.85-1.623-1.555-2.988-2.232-4.558l-.058-.131h-.372l-.013.2c-.1,1.6-.26,3.175-.477,5.2l-.047.4c-.446,3.836-.6,5.128-.409,5.614h-3.852c.283-.563.549-2.355,1.457-8.978l1.628-11.605H217.2c4.98,8.625,5.939,11.314,6.514,12.923a11.892,11.892,0,0,0,.48,1.207l.06.124h.325l.059-.124c.765-1.584,1.452-2.778,8.142-14.13Zm.206-.218h-1.5c-6.665,11.312-7.439,12.65-8.213,14.254h-.052c-.8-1.658-.558-3-7.064-14.254h-1.5l-1.654,11.794c-1.067,7.781-1.254,8.906-1.574,9.065v.161h4.507v-.161c-.347-.159-.187-1.443.347-6.044.213-1.979.373-3.583.48-5.214h.026c.693,1.6,1.413,3,2.24,4.573.775,1.417,2.054,3.637,3.814,6.5h1.466c1.707-2.808,2.053-5,2.8-6.391.881-1.631,1.546-2.835,2.347-4.653h.026c.08,1.6.267,3.181.48,5.161.56,4.626.72,5.937.4,6.07v.161h4.694v-.161c-.294-.133-.48-1.284-1.494-9.065Z" transform="translate(23.709 -261.375)" fill="#cb9a51"/>
    <path id="Path_10" data-name="Path 10" d="M365.5,567.147l-6.13,2.929-.124.059v8.427c0,6.449,0,8.4.23,9.008h-4.02c.252-.532.252-2.193.252-9.008v-8.433l-.13-.056-3.076-1.351-.041-.018h-.045c-.761,0-1.1.835-1.33,1.388a3.907,3.907,0,0,1-.176.391h-1.04v-3.335H365.5Zm.96-.218H349.652V570.7h1.369c.294-.321.514-1.779,1.395-1.779l3.075,1.351v8.29c0,7.781,0,8.852-.374,9.065v.161h4.747v-.161c-.4-.026-.4-1.257-.4-9.065v-8.29Z" transform="translate(-87.5 -262.062)" fill="#cb9a51"/>
    <path id="Path_11" data-name="Path 11" d="M461.182,567.147c-.168,1.143-1.577,2.907-2.965,2.907h-4.322v5.7h3.6a1.572,1.572,0,1,1,.053,2.88h-3.657v5.972h4.856c.9,0,1.844,1.817,1.958,2.96H450.124c.231-.547.231-2.294.231-9.008V575.62c0-6.295,0-7.947-.213-8.473h11.04Zm.235-.218h-11.6v.161c.319.16.319,1.283.319,8.531v2.942c0,7.781,0,8.905-.347,9.065v.161h11.146c0-1.23-1.067-3.4-2.187-3.4h-4.639v-5.536h3.44a3.105,3.105,0,0,0,2.426-1.712,3.048,3.048,0,0,0-2.479-1.6h-3.387v-5.269h4.1C459.844,570.272,461.416,568.133,461.416,566.929Z" transform="translate(-168.756 -262.062)" fill="#cb9a51"/>
    <path id="Path_12" data-name="Path 12" d="M544.691,567.147c-.359.505-1.041,2.018-3.391,7.23l-.527,1.17-4.418,12.371h-1.4l-5.6-12.388c-2.772-6.1-3.564-7.829-3.965-8.383h4.471c-.127.466.358,1.609,2.565,6.688,1.242,2.861,1.839,4.357,2.554,6.4l.052.146h.359l.051-.143c.8-2.205,1.324-3.579,2.5-6.381l.255-.6c1.877-4.4,2.415-5.659,2.332-6.117h4.154Zm.366-.218h-4.826v.161c.318.16-.187,1.31-2.481,6.686-1.226,2.915-1.76,4.332-2.506,6.391h-.053c-.72-2.058-1.306-3.529-2.56-6.418-2.346-5.4-2.826-6.525-2.453-6.659v-.161h-5.147v.161c.32.16.827,1.257,4.133,8.531l5.654,12.515h1.689l4.47-12.515c3.28-7.274,3.759-8.37,4.08-8.531Z" transform="translate(-229.808 -262.062)" fill="#cb9a51"/>
    <path id="Path_13" data-name="Path 13" d="M652.4,567.147c-.254.477-.254,1.874-.254,8.473v2.942c0,6.928,0,8.466.272,9.008H648.3c.277-.492.277-1.926.277-8.982V575.62c0-6.511,0-7.975-.259-8.473h4.08Zm.309-.218h-4.693v.187c.346.268.346,1.257.346,8.5v2.968c0,7.755,0,8.717-.373,9.012v.188h4.746v-.161c-.372-.321-.372-1.284-.372-9.065V575.62c0-7.274,0-8.236.346-8.5Z" transform="translate(-329.582 -262.062)" fill="#cb9a51"/>
    <path id="Path_14" data-name="Path 14" d="M691.863,566.017a73.943,73.943,0,0,1,6.074,6.872,32.453,32.453,0,0,0,2.142,2.529l.423.433c1.012,1.037,1.968,2.015,3.089,3.3l.065.075h.4l0-.221c-.027-1.255-.027-2.1-.027-4.622,0-5.958,0-7.613-.246-8.153h3.677c-.212.527-.212,2.184-.212,8.494l1.136,12.2h-1.337c-4.128-4.068-7.142-7.056-9.215-9.136-1.28-1.284-2.206-2.211-3.725-3.922l-.065-.073h-.379l.012.229c.053,1.064.053,1.878.053,4.054,0,6.369,0,8.047.228,8.58h-3.7c.23-.547.23-2.294.23-9.008V566.017Zm.089-.217h-1.692v11.847c0,7.781,0,8.9-.345,9.065v.161h4.373v-.161c-.347-.16-.347-1.284-.347-8.637,0-2.166,0-3-.053-4.065h.053c1.52,1.712,2.453,2.648,3.734,3.931,1.813,1.819,4.612,4.6,9.279,9.2h1.664L707.461,574.7c0-7.247,0-8.37.32-8.531v-.161h-4.346v.161c.374.16.374,1.283.374,8.21,0,2.487,0,3.37.027,4.627h-.081c-1.28-1.472-2.347-2.541-3.52-3.745C698.421,573.421,696.751,570.586,691.952,565.8Z" transform="translate(-363.601 -261.147)" fill="#cb9a51"/>
    <path id="Path_15" data-name="Path 15" d="M810.97,565.733a10.464,10.464,0,0,1,7.466,2.952,10.32,10.32,0,0,1,2.956,7.394v.027a10.651,10.651,0,1,1-10.422-10.373m-.16,17.811c3.972,0,6.856-3.083,6.856-7.332v-.027a6.934,6.934,0,1,0-6.856,7.358Zm.16-18.028c-6.32,0-11.093,4.627-11.093,10.777a10.867,10.867,0,0,0,21.732-.186v-.027A10.316,10.316,0,0,0,810.97,565.516Zm-.16,17.81a6.78,6.78,0,0,1-6.773-7.086c0-4.038,2.827-7.114,6.773-7.114a6.746,6.746,0,0,1,6.639,7.06v.027C817.449,580.2,814.756,583.326,810.81,583.326Z" transform="translate(-452.828 -260.916)" fill="#cb9a51"/>
  </g>
</svg>